<svg width="150" height="45" viewBox="0 0 150 45" fill="none" xmlns="http://www.w3.org/2000/svg">
<path d="M17.5319 10.5157L17.9197 9.3377H26.8839C26.9572 9.33796 27.0295 9.32091 27.095 9.28791C27.1605 9.25491 27.2172 9.20691 27.2607 9.14781C27.3041 9.08872 27.3329 9.0202 27.3448 8.94785C27.3567 8.8755 27.3514 8.80136 27.3292 8.73147L27.062 7.89252H18.3995L18.8104 6.65133H26.0305C26.1035 6.65162 26.1755 6.63465 26.2406 6.6018C26.3058 6.56894 26.3622 6.52115 26.4054 6.46231C26.4485 6.40347 26.4772 6.33527 26.4889 6.26326C26.5007 6.19125 26.4952 6.11748 26.473 6.04798L26.2115 5.20615H19.2873L19.6637 4.07989H25.2088C25.2819 4.07954 25.354 4.06208 25.4191 4.02891C25.4843 3.99573 25.5408 3.94776 25.584 3.88883C25.6273 3.82991 25.6562 3.76167 25.6684 3.68957C25.6806 3.61748 25.6757 3.54353 25.6542 3.47366L25.387 2.64333H20.1378L20.5113 1.51419H24.3814C24.4548 1.51415 24.5271 1.49675 24.5925 1.46339C24.658 1.43004 24.7145 1.3817 24.7577 1.3223C24.8008 1.2629 24.8293 1.19414 24.8408 1.12163C24.8523 1.04912 24.8465 0.974922 24.8238 0.905092L24.5739 0.114984C23.7997 0.0366472 23.0219 -0.00171245 22.2438 5.86232e-05C21.9105 5.86232e-05 21.5772 5.81848e-05 21.2439 0.0287894C17.3709 0.222187 13.6155 1.42411 10.3499 3.5155C7.08434 5.60689 4.42181 8.51517 2.6261 11.9522L21.4422 11.9724C21.495 11.8077 21.5083 11.6329 21.4809 11.4622C21.4536 11.2915 21.3864 11.1296 21.2848 10.9897C21.1833 10.8498 21.0501 10.7358 20.8963 10.6569C20.7424 10.578 20.5721 10.5366 20.3992 10.5358L17.5319 10.5157Z" fill="#F4831F"/>
<path d="M43.5537 17.9858L44.2203 17.506C43.5722 14.5313 42.3195 11.7216 40.5398 9.25151C38.8505 6.88984 36.7122 4.88432 34.2472 3.34964C31.7823 1.81495 29.039 0.781194 26.1742 0.30748L32.1302 18.638C32.3036 18.638 32.4746 18.5971 32.6292 18.5186C32.7838 18.4401 32.9178 18.3263 33.0203 18.1864C33.1227 18.0464 33.1907 17.8843 33.2187 17.7132C33.2468 17.5421 33.2341 17.3667 33.1817 17.2014L32.1532 14.041H33.3943L36.1612 22.5569C36.1839 22.6277 36.223 22.6921 36.2754 22.7449C36.3277 22.7977 36.3918 22.8373 36.4624 22.8606C36.533 22.8838 36.6082 22.89 36.6816 22.8787C36.7551 22.8674 36.8249 22.8388 36.8852 22.7954L37.592 22.2869L34.9171 14.0467H36.2244L38.4539 20.902C38.4759 20.9733 38.5146 21.0383 38.5667 21.0917C38.6188 21.1451 38.6828 21.1854 38.7535 21.2093C38.8242 21.2331 38.8995 21.2398 38.9733 21.2289C39.0471 21.2179 39.1172 21.1896 39.1779 21.1462L39.8847 20.6377L37.7414 14.0554H38.928L40.6518 19.3189C40.6746 19.3897 40.7137 19.4541 40.766 19.5069C40.8184 19.5597 40.8825 19.5993 40.9531 19.6226C41.0237 19.6458 41.0988 19.652 41.1723 19.6407C41.2458 19.6294 41.3155 19.6008 41.3759 19.5574L42.0827 19.0488L40.4622 14.064H41.6517L42.844 17.733C42.8663 17.8024 42.9042 17.8657 42.9549 17.918C43.0056 17.9704 43.0677 18.0103 43.1364 18.0348C43.205 18.0593 43.2784 18.0676 43.3508 18.0591C43.4231 18.0506 43.4926 18.0255 43.5537 17.9858V17.9858Z" fill="#F89E1D"/>
<path d="M44.7001 19.2701L28.9726 30.4753C29.0237 30.6418 29.1135 30.7939 29.2348 30.919C29.3561 31.044 29.5054 31.1385 29.6703 31.1946C29.8353 31.2507 30.0112 31.2668 30.1836 31.2417C30.356 31.2165 30.52 31.1508 30.662 31.0499L33.4001 29.099L33.7678 30.2828L26.4845 35.4716C26.4233 35.5161 26.3736 35.5745 26.3393 35.6419C26.305 35.7093 26.2871 35.7839 26.2871 35.8595C26.2871 35.9351 26.305 36.0097 26.3393 36.0771C26.3736 36.1445 26.4233 36.2028 26.4845 36.2474L27.1712 36.7645L34.2275 31.7366L34.6154 32.9892L28.7542 37.1639C28.6931 37.2084 28.6434 37.2667 28.6091 37.3342C28.5748 37.4016 28.5569 37.4761 28.5569 37.5518C28.5569 37.6274 28.5748 37.7019 28.6091 37.7694C28.6434 37.8368 28.6931 37.8951 28.7542 37.9396L29.4409 38.4539L35.0751 34.4315L35.4285 35.5808L30.9292 38.7843C30.8681 38.8288 30.8183 38.8872 30.784 38.9546C30.7497 39.022 30.7318 39.0966 30.7318 39.1722C30.7318 39.2478 30.7497 39.3224 30.784 39.3898C30.8183 39.4572 30.8681 39.5155 30.9292 39.5601L31.6159 40.0744L35.8882 37.0346L36.2387 38.1695L33.0754 40.3961C33.0143 40.441 32.9645 40.4996 32.9302 40.5672C32.8959 40.6349 32.8781 40.7096 32.8781 40.7854C32.8781 40.8613 32.8959 40.936 32.9302 41.0037C32.9645 41.0713 33.0143 41.1299 33.0754 41.1748L33.7219 41.6574C34.6884 41.1071 35.6114 40.4837 36.4829 39.7928C37.996 38.5978 39.3481 37.212 40.5053 35.6699C42.2482 33.3462 43.5158 30.7017 44.2356 27.8876C44.9554 25.0736 45.1132 22.1452 44.7001 19.2701Z" fill="#F0B141"/>
<path d="M16.8826 31.2395C16.7413 31.3415 16.6264 31.4755 16.5471 31.6306C16.4677 31.7857 16.4264 31.9574 16.4264 32.1316C16.4264 32.3058 16.4677 32.4775 16.5471 32.6326C16.6264 32.7877 16.7413 32.9217 16.8826 33.0237L19.4971 34.92L18.4915 35.6469L11.2311 30.3833C11.1724 30.3402 11.1042 30.3116 11.0323 30.2998C10.9603 30.288 10.8866 30.2934 10.8171 30.3155C10.7477 30.3377 10.6844 30.3759 10.6325 30.4271C10.5807 30.4783 10.5416 30.5411 10.5186 30.6103L10.2313 31.4464L17.2532 36.5347L16.1901 37.3018L10.3462 33.0668C10.2872 33.0237 10.2189 32.9952 10.1468 32.9836C10.0747 32.972 10.0009 32.9777 9.93136 33.0001C9.86186 33.0225 9.79865 33.0611 9.74691 33.1126C9.69517 33.1642 9.65637 33.2272 9.63368 33.2967L9.34637 34.1327L14.9461 38.1925L13.9807 38.8878L9.4929 35.6325C9.4333 35.5901 9.36461 35.5623 9.29232 35.5512C9.22004 35.5402 9.14616 35.5462 9.07662 35.5688C9.00708 35.5914 8.94381 35.63 8.89186 35.6815C8.83992 35.733 8.80075 35.7959 8.77749 35.8652L8.49018 36.7013L12.7367 39.7784L11.7713 40.4737L8.63671 38.2011C8.57754 38.158 8.50902 38.1297 8.43675 38.1182C8.36449 38.1068 8.29055 38.1127 8.221 38.1354C8.15146 38.1582 8.08829 38.197 8.03669 38.2489C7.98509 38.3008 7.94653 38.3641 7.92417 38.4338L7.66272 39.2239C9.93655 41.2487 12.6039 42.7824 15.4977 43.729C17.8362 44.5013 20.2871 44.878 22.7495 44.8437C26.0958 44.7916 29.3878 43.9894 32.3831 42.4964L16.8826 31.2395Z" fill="#BC6028"/>
<path d="M9.61642 23.4131L8.6137 22.6834L11.3374 14.1674C11.3604 14.0953 11.3661 14.0188 11.3541 13.9441C11.342 13.8694 11.3126 13.7985 11.2681 13.7373C11.2237 13.6761 11.1654 13.6261 11.0981 13.5916C11.0308 13.557 10.9563 13.5387 10.8806 13.5382H10.0187L7.37826 21.7898L6.32095 21.0198L8.51315 14.1674C8.53619 14.0951 8.54185 14.0183 8.52966 13.9434C8.51747 13.8685 8.48778 13.7975 8.44299 13.7362C8.3982 13.6748 8.33958 13.625 8.27189 13.5906C8.20421 13.5562 8.12937 13.5382 8.05344 13.5382H7.19151L5.08264 20.1234L4.12589 19.4224L5.80954 14.1646C5.83251 14.0924 5.83821 14.0159 5.82617 13.9412C5.81413 13.8665 5.78469 13.7957 5.74023 13.7344C5.69577 13.6732 5.63753 13.6233 5.57021 13.5887C5.50289 13.5541 5.42839 13.5358 5.35271 13.5353H4.49077L2.89332 18.5288L1.93082 17.8307L3.10306 14.1646C3.12603 14.0924 3.13173 14.0159 3.11969 13.9412C3.10765 13.8665 3.07821 13.7957 3.03375 13.7344C2.98929 13.6732 2.93105 13.6233 2.86373 13.5887C2.79642 13.5541 2.72191 13.5358 2.64623 13.5353H1.83601C0.622581 16.3286 -0.00238306 19.342 8.64637e-05 22.3874C-0.00804175 25.2926 0.55699 28.1707 1.66282 30.8572C2.76865 33.5436 4.39356 35.9855 6.4445 38.0431L12.3775 19.5057C12.2182 19.4221 12.0426 19.3743 11.8629 19.3658C11.6832 19.3573 11.5038 19.3882 11.3374 19.4563C11.1709 19.5245 11.0214 19.6283 10.8993 19.7604C10.7772 19.8925 10.6855 20.0498 10.6306 20.2211L9.61642 23.4131Z" fill="#D65029"/>
<path d="M59.3789 7.3179C59.218 6.25484 58.7785 5.88133 58.0372 5.88133C57.7127 5.86319 57.3941 5.97365 57.1505 6.18877C56.9069 6.40389 56.7578 6.70634 56.7357 7.03058C56.7357 7.91263 57.5373 8.312 59.1606 9.01304C62.4216 10.4151 63.2433 11.5988 63.2433 13.5382C63.2433 16.4113 61.2809 18.0806 58.0717 18.0806C54.8624 18.0806 52.7277 16.3998 52.7277 13.2164V12.8975H56.4915C56.5116 14.1186 57.112 14.9087 58.0516 14.9087C58.2396 14.9117 58.4264 14.8772 58.6009 14.8072C58.7754 14.7372 58.9343 14.633 59.068 14.5009C59.2018 14.3687 59.3079 14.2111 59.38 14.0374C59.4522 13.8638 59.4889 13.6774 59.4881 13.4894C59.4881 12.3085 57.8476 11.7856 56.5058 11.2454C54.0752 10.2801 52.969 8.99867 52.969 7.06793C52.969 4.54533 55.4112 2.70366 58.1406 2.70366C59.0523 2.69569 59.9523 2.90862 60.7638 3.32426C62.344 4.14597 63.1054 5.33544 63.1255 7.30927L59.3789 7.3179Z" fill="white"/>
<path d="M72.6527 2.99385H76.4366V12.0614C76.4366 13.6043 76.1982 14.765 75.6954 15.5638C74.7156 17.1468 73.055 18.0864 70.8111 18.0864C69.7108 18.1241 68.6203 17.8693 67.6506 17.348C65.9095 16.3251 65.0648 14.9432 65.0648 12.0815V2.99385H68.8487V12.0212C68.8487 13.8629 69.4233 14.765 70.768 14.765C72.0494 14.765 72.6499 14.1243 72.6499 12.0413L72.6527 2.99385Z" fill="white"/>
<path d="M79.0282 17.8077V2.99386H84.0332C85.6163 2.97375 86.7971 3.19211 87.5786 3.56849C89.1789 4.30975 90.1788 6.01064 90.1788 8.0132C90.1788 10.7542 88.6589 13.1848 84.4153 13.1848H82.6541V17.8307L79.0282 17.8077ZM84.286 9.84051C85.8059 9.84051 86.5673 9.3176 86.5673 8.0563C86.5673 6.85821 85.826 6.31519 84.1452 6.31519H82.6656V9.84051H84.286Z" fill="white"/>
<path d="M91.5923 17.8077V2.99386H96.5973C98.1804 2.97375 99.3612 3.19211 100.14 3.56849C101.743 4.30975 102.743 6.01064 102.743 8.0132C102.743 10.7542 101.223 13.1848 96.9765 13.1848H95.2038V17.8307L91.5923 17.8077ZM96.8386 9.84051C98.3585 9.84051 99.1199 9.3176 99.1199 8.0563C99.1199 6.85821 98.3786 6.31519 96.6978 6.31519H95.2038V9.84051H96.8386Z" fill="white"/>
<path d="M103.596 10.7398C103.596 6.1428 106.897 2.7123 111.402 2.7123C115.727 2.7123 119.232 6.05661 119.232 10.3002C119.232 14.6846 115.827 18.0864 111.583 18.0864C107.461 18.0864 103.596 15.1127 103.596 10.7398ZM115.448 10.4209C115.448 8.09652 113.784 6.0365 111.402 6.0365C109.021 6.0365 107.38 8.01895 107.38 10.3605C107.38 12.8027 109.041 14.765 111.463 14.765C113.804 14.765 115.448 12.7826 115.448 10.4209Z" fill="white"/>
<path d="M128.245 17.8077L124.823 13.0239H124.797V17.8077H121.165V2.99385H126.009C127.549 2.99385 128.73 3.1921 129.512 3.534C131.115 4.25515 132.235 5.99626 132.235 8.09651C132.235 10.441 130.833 12.3631 128.552 12.7625L132.574 17.8077H128.245ZM126.182 10.441C127.684 10.441 128.607 9.73994 128.607 8.31775C128.607 7.03633 127.644 6.30656 126.222 6.30656H124.785V10.4324L126.182 10.441Z" fill="white"/>
<path d="M135.965 17.8077V6.31518H133.04V2.99385H142.65V6.31518H139.737V17.8077H135.965Z" fill="white"/>
<path d="M63.1226 38.1953L62.4015 36.0549H57.2586L56.4771 38.1953H52.4116L58.359 23.3815H61.3413L67.2283 38.1953H63.1226ZM59.8789 28.0072L59.8185 27.9871L58.2986 33.0524H61.4016L59.8789 28.0072Z" fill="white"/>
<path d="M67.9724 38.1953V35.713L73.0808 26.7057H67.9724V23.3815H77.3187V26.4443L72.5953 34.874H77.3187V38.1953H67.9724Z" fill="white"/>
<path d="M85.2656 38.1953V23.3815H89.0495V34.874H93.4339V38.1953H85.2656Z" fill="white"/>
<path d="M93.8247 31.1303C93.8247 26.5333 97.1288 23.1028 101.631 23.1028C105.955 23.1028 109.46 26.4443 109.46 30.6907C109.46 35.0723 106.056 38.4769 101.812 38.4769C97.6891 38.4769 93.8247 35.5118 93.8247 31.1303ZM105.676 30.8085C105.676 28.4871 104.016 26.4242 101.631 26.4242C99.2463 26.4242 97.6086 28.4066 97.6086 30.7338C97.6086 33.176 99.2693 35.1383 101.691 35.1383C104.036 35.1527 105.676 33.1702 105.676 30.8085Z" fill="white"/>
<path d="M121.973 29.0071C121.332 27.3867 119.93 26.4213 118.39 26.4213C116.028 26.4213 114.425 28.4325 114.425 30.731C114.425 33.1329 116.068 35.1355 118.41 35.1355C119.913 35.1355 121.191 34.2965 121.973 32.633H125.946C125.599 33.955 124.912 35.1629 123.952 36.1358C122.992 37.1088 121.794 37.8128 120.476 38.1775C119.159 38.5422 117.769 38.5549 116.446 38.2141C115.122 37.8734 113.911 37.1913 112.934 36.2359C111.331 34.6758 110.65 32.7881 110.65 30.5528C110.65 26.6281 114.034 23.0827 118.278 23.0827C120.321 23.0827 121.961 23.643 123.45 24.9043C124.849 26.1052 125.691 27.4671 125.952 28.987L121.973 29.0071Z" fill="white"/>
<path d="M136.459 38.1953L135.741 36.0549H130.595L129.813 38.1953H125.751L131.692 23.3815H134.675L140.562 38.1953H136.459ZM133.218 28.0072L133.158 27.9871L131.635 33.0524H134.738L133.218 28.0072Z" fill="white"/>
<path d="M141.832 38.1953V23.3815H145.616V34.874H150V38.1953H141.832Z" fill="white"/>
</svg>
